<svg width="19" height="25" viewBox="0 0 19 25" fill="none" xmlns="http://www.w3.org/2000/svg">
<path d="M13.3 14.8438C12.0828 14.8438 11.4975 15.625 9.5 15.625C7.50246 15.625 6.92143 14.8438 5.7 14.8438C2.55312 14.8438 0 17.7832 0 21.4062V22.6562C0 23.9502 0.91183 25 2.03571 25H16.9643C18.0882 25 19 23.9502 19 22.6562V21.4062C19 17.7832 16.4469 14.8438 13.3 14.8438ZM16.9643 22.6562H2.03571V21.4062C2.03571 19.082 3.68125 17.1875 5.7 17.1875C6.3192 17.1875 7.32433 17.9688 9.5 17.9688C11.6926 17.9688 12.6766 17.1875 13.3 17.1875C15.3187 17.1875 16.9643 19.082 16.9643 21.4062V22.6562ZM9.5 14.0625C12.8717 14.0625 15.6071 10.9131 15.6071 7.03125C15.6071 3.14941 12.8717 0 9.5 0C6.12835 0 3.39286 3.14941 3.39286 7.03125C3.39286 10.9131 6.12835 14.0625 9.5 14.0625ZM9.5 2.34375C11.7435 2.34375 13.5714 4.44824 13.5714 7.03125C13.5714 9.61426 11.7435 11.7188 9.5 11.7188C7.25647 11.7188 5.42857 9.61426 5.42857 7.03125C5.42857 4.44824 7.25647 2.34375 9.5 2.34375Z" fill="white"/>
</svg>
