<svg width="19" height="17" viewBox="0 0 19 17" fill="none" xmlns="http://www.w3.org/2000/svg">
<path d="M9.50212 4.14141C6.8063 4.14141 4.63185 6.08741 4.63185 8.5C4.63185 10.9126 6.8063 12.8586 9.50212 12.8586C12.1979 12.8586 14.3724 10.9126 14.3724 8.5C14.3724 6.08741 12.1979 4.14141 9.50212 4.14141ZM9.50212 11.3336C7.76001 11.3336 6.33581 10.0629 6.33581 8.5C6.33581 6.93713 7.75577 5.66635 9.50212 5.66635C11.2485 5.66635 12.6684 6.93713 12.6684 8.5C12.6684 10.0629 11.2442 11.3336 9.50212 11.3336ZM15.7076 3.96313C15.7076 4.52834 15.1989 4.97975 14.5716 4.97975C13.94 4.97975 13.4356 4.52455 13.4356 3.96313C13.4356 3.40171 13.9443 2.9465 14.5716 2.9465C15.1989 2.9465 15.7076 3.40171 15.7076 3.96313ZM18.9332 4.99492C18.8612 3.6331 18.5136 2.42681 17.3988 1.43295C16.2883 0.439083 14.9404 0.128026 13.4187 0.0597456C11.8504 -0.0199152 7.14964 -0.0199152 5.58132 0.0597456C4.06386 0.124233 2.71595 0.435289 1.60117 1.42915C0.486392 2.42302 0.143056 3.62931 0.0667596 4.99113C-0.0222532 6.39468 -0.0222532 10.6015 0.0667596 12.0051C0.138818 13.3669 0.486392 14.5732 1.60117 15.5671C2.71595 16.5609 4.05962 16.872 5.58132 16.9403C7.14964 17.0199 11.8504 17.0199 13.4187 16.9403C14.9404 16.8758 16.2883 16.5647 17.3988 15.5671C18.5094 14.5732 18.8569 13.3669 18.9332 12.0051C19.0223 10.6015 19.0223 6.39847 18.9332 4.99492ZM16.9071 13.511C16.5765 14.2545 15.9365 14.8273 15.1015 15.127C13.851 15.5708 10.8839 15.4684 9.50212 15.4684C8.1203 15.4684 5.14897 15.5671 3.90279 15.127C3.072 14.8311 2.43196 14.2583 2.0971 13.511C1.60117 12.392 1.71562 9.73664 1.71562 8.5C1.71562 7.26336 1.60541 4.60421 2.0971 3.48895C2.42772 2.74545 3.06776 2.17265 3.90279 1.87298C5.15321 1.42915 8.1203 1.53157 9.50212 1.53157C10.8839 1.53157 13.8553 1.43295 15.1015 1.87298C15.9322 2.16886 16.5723 2.74166 16.9071 3.48895C17.4031 4.608 17.2886 7.26336 17.2886 8.5C17.2886 9.73664 17.4031 12.3958 16.9071 13.511Z" fill="#FAFAFA" fill-opacity="0.82"/>
</svg>
