<svg width="15" height="15" viewBox="0 0 15 15" fill="none" xmlns="http://www.w3.org/2000/svg">
<path d="M13.5938 0H1.40625C0.62959 0 0 0.839453 0 1.875V13.125C0 14.1605 0.62959 15 1.40625 15H13.5938C14.3704 15 15 14.1605 15 13.125V1.875C15 0.839453 14.3704 0 13.5938 0ZM13.5938 1.875V3.46895C12.9369 4.18219 11.8896 5.29125 9.65077 7.62871C9.15738 8.14617 8.18004 9.38934 7.5 9.37484C6.82008 9.38949 5.84241 8.14598 5.34923 7.62871C3.11074 5.2916 2.06323 4.1823 1.40625 3.46895V1.875H13.5938ZM1.40625 13.125V5.87492C2.07756 6.58785 3.02956 7.58828 4.48061 9.10328C5.12095 9.77535 6.24234 11.259 7.5 11.25C8.75147 11.259 9.85866 9.79688 10.5191 9.10359C11.9701 7.58863 12.9224 6.58793 13.5938 5.87496V13.125H1.40625Z" fill="#F65E08"/>
</svg>
