<svg width="25" height="25" viewBox="0 0 25 25" fill="none" xmlns="http://www.w3.org/2000/svg">
<path d="M7.03358 9.82143C6.16943 9.82143 5.47128 10.6194 5.47128 11.6071C5.47128 12.5949 6.16943 13.3929 7.03358 13.3929C7.89773 13.3929 8.59588 12.5949 8.59588 11.6071C8.59588 10.6194 7.89773 9.82143 7.03358 9.82143ZM12.5016 9.82143C11.6375 9.82143 10.9393 10.6194 10.9393 11.6071C10.9393 12.5949 11.6375 13.3929 12.5016 13.3929C13.3658 13.3929 14.0639 12.5949 14.0639 11.6071C14.0639 10.6194 13.3658 9.82143 12.5016 9.82143ZM17.9697 9.82143C17.1055 9.82143 16.4074 10.6194 16.4074 11.6071C16.4074 12.5949 17.1055 13.3929 17.9697 13.3929C18.8338 13.3929 19.532 12.5949 19.532 11.6071C19.532 10.6194 18.8338 9.82143 17.9697 9.82143ZM12.5016 0C5.59822 0 0.00324022 5.19531 0.00324022 11.6071C0.00324022 14.2634 0.974794 16.6964 2.58591 18.6551C1.85847 20.8538 0.344993 22.7176 0.320582 22.74C-0.00164196 23.1306 -0.0895212 23.6998 0.0960016 24.1908C0.281524 24.6819 0.706274 25 1.17496 25C4.1775 25 6.54536 23.5658 7.96608 22.4163C9.37703 22.9241 10.9003 23.2143 12.5016 23.2143C19.405 23.2143 25 18.019 25 11.6071C25 5.19531 19.405 0 12.5016 0ZM12.5016 20.5357C11.1981 20.5357 9.90918 20.3069 8.67399 19.8605L7.56574 19.4587L6.61371 20.2288C5.91556 20.7924 4.95865 21.423 3.80646 21.8471C4.16286 21.1719 4.50949 20.4129 4.77801 19.6038L5.29552 18.0357L4.28979 16.8192C3.40612 15.7422 2.34669 13.9621 2.34669 11.6071C2.34669 6.68527 6.90176 2.67857 12.5016 2.67857C18.1015 2.67857 22.6566 6.68527 22.6566 11.6071C22.6566 16.529 18.1015 20.5357 12.5016 20.5357Z" fill="white"/>
</svg>
