<svg width="20" height="27" viewBox="0 0 20 27" fill="none" xmlns="http://www.w3.org/2000/svg">
<path d="M19.6156 19.1051C18.7531 18.0104 17.1393 16.3635 17.1393 10.9688C17.1393 6.87129 14.7071 3.59121 11.4277 2.78648V1.6875C11.4277 0.755684 10.7884 0 10 0C9.21161 0 8.57233 0.755684 8.57233 1.6875V2.78648C5.29287 3.59121 2.86074 6.87129 2.86074 10.9688C2.86074 16.3635 1.2469 18.0104 0.384405 19.1051C0.116548 19.4453 -0.00220127 19.8519 3.08655e-05 20.25C0.00494156 21.1148 0.579493 21.9375 1.43306 21.9375H18.5669C19.4205 21.9375 19.9955 21.1148 20 20.25C20.0022 19.8519 19.8835 19.4447 19.6156 19.1051V19.1051ZM3.01475 19.4062C3.96207 17.9313 4.99778 15.4865 5.00269 10.9993C5.00269 10.9888 5.00002 10.9793 5.00002 10.9688C5.00002 7.7066 7.2384 5.0625 10 5.0625C12.7616 5.0625 15 7.7066 15 10.9688C15 10.9793 14.9973 10.9888 14.9973 10.9993C15.0022 15.487 16.0379 17.9318 16.9852 19.4062H3.01475ZM10 27C11.5768 27 12.8558 25.4892 12.8558 23.625H7.14421C7.14421 25.4892 8.42322 27 10 27Z" fill="white"/>
</svg>
