<svg width="12" height="16" viewBox="0 0 12 16" fill="none" xmlns="http://www.w3.org/2000/svg">
<path d="M9.74209 0.554601L2.30507 0.373419C1.42525 0.351985 0.696588 0.943632 0.6783 1.69431L0.391213 13.4785C0.372925 14.2292 1.07191 14.8556 1.95173 14.877L9.38875 15.0582C10.2686 15.0796 10.9972 14.488 11.0155 13.7373L11.3026 1.95314C11.3209 1.20246 10.6219 0.576035 9.74209 0.554601ZM5.69233 14.0611C5.10467 14.0468 4.63976 13.6302 4.65198 13.1288C4.66419 12.6274 5.14884 12.2339 5.73649 12.2482C6.32415 12.2625 6.78906 12.6791 6.77684 13.1805C6.76463 13.6819 6.27998 14.0754 5.69233 14.0611ZM9.48537 11.0924C9.48081 11.2793 9.2978 11.4279 9.07867 11.4226L2.43848 11.2608C2.21935 11.2555 2.0438 11.0981 2.04835 10.9112L2.26367 2.07306C2.26822 1.8861 2.45123 1.7375 2.67036 1.74284L9.31055 1.90461C9.52968 1.90994 9.70524 2.06728 9.70068 2.25424L9.48537 11.0924Z" fill="#F65E08"/>
</svg>
