<svg width="23" height="17" viewBox="0 0 23 17" fill="none" xmlns="http://www.w3.org/2000/svg">
<path d="M22.5194 2.65992C22.2549 1.61292 21.4755 0.788331 20.486 0.508495C18.6923 0 11.5 0 11.5 0C11.5 0 4.30774 0 2.51405 0.508495C1.52449 0.788375 0.745127 1.61292 0.480607 2.65992C0 4.55768 0 8.51718 0 8.51718C0 8.51718 0 12.4767 0.480607 14.3744C0.745127 15.4214 1.52449 16.2117 2.51405 16.4915C4.30774 17 11.5 17 11.5 17C11.5 17 18.6923 17 20.486 16.4915C21.4755 16.2117 22.2549 15.4214 22.5194 14.3744C23 12.4767 23 8.51718 23 8.51718C23 8.51718 23 4.55768 22.5194 2.65992ZM9.14771 12.1121V4.92225L15.159 8.51727L9.14771 12.1121Z" fill="#FAFAFA" fill-opacity="0.82"/>
</svg>
